<?xml version="1.0" encoding="utf-8"?>
<!-- Generator: Adobe Illustrator 23.0.5, SVG Export Plug-In . SVG Version: 6.00 Build 0)  -->
<svg version="1.1" xmlns="http://www.w3.org/2000/svg" xmlns:xlink="http://www.w3.org/1999/xlink" x="0px" y="0px"
	 viewBox="0 0 5760 3270" style="enable-background:new 0 0 5760 3270;" xml:space="preserve">
<style type="text/css">
	.st0{fill:#FFFFFF;}
	.st1{fill:#F2F2F2;}
	.st2{fill:#1C6476;}
	.st3{fill:#1D464E;}
	.st4{fill:#FF8F6B;}
	.st5{fill:#F08765;}
	.st6{fill:#FFEDBB;}
	.st7{fill:#F7E6B5;}
	.st8{fill:#001F52;}
	.st9{fill:#001F6B;}
	.st10{fill:url(#SVGID_1_);}
	.st11{fill:#D6AE8A;}
	.st12{fill:#BB1E55;}
	.st13{fill:#8D0042;}
	.st14{fill:url(#SVGID_2_);}
	.st15{fill:#FEC3A5;}
	.st16{fill:url(#SVGID_3_);}
	.st17{fill:url(#SVGID_4_);}
	.st18{fill:url(#SVGID_5_);}
	.st19{fill:#FEBE9D;}
	.st20{fill:url(#SVGID_6_);}
	.st21{fill:url(#SVGID_7_);}
	.st22{fill:#FEC8AD;}
	.st23{fill:#FED2BC;}
	.st24{fill:#D5C4AB;}
	.st25{fill:#011635;}
	.st26{fill:#FF8C67;}
	.st27{fill:url(#SVGID_8_);}
</style>
<g id="background">
	<rect class="st0" width="5760" height="3270"/>
</g>
<g id="object">
	<g>
		<g>
			<ellipse class="st1" cx="2771.61" cy="2626.26" rx="990.51" ry="169.48"/>
			<g>
				<g>
					<path class="st2" d="M2561.15,2442.85c-90.85,70.72-646.3-244.29-734-747.97c-65.78-377.83,139.56-816.46,332.71-828.61
						c125.97-7.92,259.73,164.72,303.01,318.7c47.8,170.05-29.76,263.92-58.09,460.75
						C2339.66,2098.09,2636.72,2384.03,2561.15,2442.85z"/>
					<path class="st3" d="M2024.27,1638.76c28.65-262.83,189.11-517.68,347.93-636.93c-59.76-81.11-137.43-140.27-212.35-135.56
						c-193.16,12.15-398.49,450.77-332.71,828.61c44.73,256.91,211.16,464.73,375.56,597.32
						C2089.06,2120.94,1997.32,1885.95,2024.27,1638.76z"/>
				</g>
				<g>
					<path class="st2" d="M2416.99,2483.96c-46.2,105.45-684.64,93.03-1001.64-308.08c-237.8-300.89-266.16-784.37-102.11-887.05
						c106.99-66.96,306.83,21.13,418.23,135.91c123.02,126.75,99.54,246.23,168.37,432.8
						C2058.03,2286.3,2455.42,2396.23,2416.99,2483.96z"/>
					<path class="st3" d="M1561.94,2032.63c-99.99-244.75-80.28-545.26,2.57-725.76c-91.18-42.86-187.65-57.88-251.28-18.06
						c-164.05,102.68-135.69,586.16,102.11,887.05c161.7,204.6,407.02,308.06,614.72,346.34
						C1848.56,2425.75,1655.98,2262.82,1561.94,2032.63z"/>
				</g>
			</g>
			<g>
				<g>
					<path class="st4" d="M2671.76,2272.73l-404.1,251.66c-44.9,27.96-31.7,101.95,19.51,109.7c99.12,15,208.52,25.65,326.78,28.31
						c164.02,3.69,312.72-8.71,442.46-28.34c51.17-7.74,64.28-81.75,19.42-109.69L2671.76,2272.73z"/>
					<path class="st5" d="M2613.96,2559.92c164.02,3.69,312.72-8.71,442.46-28.34c7.34-1.11,13.89-3.59,19.6-7.09
						c-0.06-0.04-0.12-0.08-0.18-0.12l-404.07-251.64l-404.1,251.66c-0.05,0.03-0.1,0.07-0.16,0.1c5.73,3.52,12.3,6.01,19.67,7.12
						C2386.29,2546.61,2495.69,2557.26,2613.96,2559.92z"/>
				</g>
				<g>
					<path class="st4" d="M3100.06,1675.07c104.48-22.2,224.66,170.03,265.39,235.17c171.97,275.06,170.63,623.81,97.22,649.01
						c-40.24,13.82-69.29-80.88-229.91-169.48c-121.36-66.94-163.53-45.29-215.46-91.97
						C2861.86,2158.11,2952.83,1706.35,3100.06,1675.07z"/>
					<path class="st5" d="M3462.67,2559.25c6.05-2.08,11.61-6.37,16.63-12.63c-5.66-36.81-11.42-70.78-16.63-95.1
						c-9.97-46.53-75.09-99.44-137-140.37c-72.18-47.72-112.53-131.06-105.15-217.28l29.21-341.51
						c-46.6-49.8-99.92-87.86-149.67-77.29c-147.23,31.28-238.2,483.04-82.77,622.74c51.93,46.67,94.1,25.02,215.46,91.97
						C3393.38,2478.38,3422.43,2573.07,3462.67,2559.25z"/>
				</g>
				<g>
					<path class="st6" d="M2196.17,2441.01l-94.59-1271.75h1106.22l-94.59,1271.75c-130.01,36.76-318.45,73.47-545.22,61.75
						C2421.43,2495.19,2295.66,2469.3,2196.17,2441.01z"/>
					<path class="st7" d="M2196.17,2441.01c99.49,28.29,225.26,54.18,371.8,61.75c40.27,2.08,79.33,2.63,117.08,1.93
						c-25.76-78.13-43.82-165.99-46.13-262.06c-2.85-118.3,19.27-203.74,31.53-256.19c19.97-85.41,121.63-520.31,80.71-817.18
						h-649.58L2196.17,2441.01z"/>
				</g>
				<g>
					<circle class="st4" cx="2780.81" cy="1659.31" r="201.01"/>
					<circle class="st8" cx="2780.81" cy="1659.31" r="151.09"/>
					<path class="st9" d="M2864.62,1533.59c-17.13,20.38-37.46,43.66-61.48,67.91c-52.52,53.03-106.48,94.37-156.86,126.65
						c21.6,42.12,62.4,72.77,110.85,80.4c35.84-26.39,72.28-59.2,102.5-99.31c26.52-35.19,46.34-73.47,60.19-109.18
						C2908.23,1572.89,2888.91,1549.81,2864.62,1533.59z"/>
				</g>
				<g>
					<path class="st4" d="M2223.97,1675.07c-104.48-22.2-224.66,170.03-265.39,235.17c-171.97,275.06-170.63,623.81-97.22,649.01
						c40.24,13.82,69.29-80.88,229.91-169.48c121.36-66.94,163.53-45.29,215.46-91.97
						C2462.17,2158.11,2371.2,1706.35,2223.97,1675.07z"/>
					<path class="st5" d="M2292.08,2242.63c-26.6,15.43-79.41,27.58-183.93,51.24c-18.94,4.29-36.85,8.23-53.54,11.81
						c-42.8,9.2-80.33-29.92-69.34-72.3c21.99-84.79,56.66-185.64,112.36-292.93c52.06-100.27,110.18-182.41,164.16-247.55
						c-12.07-8.92-24.73-15.05-37.82-17.83c-104.48-22.2-224.66,170.03-265.39,235.17c-171.97,275.06-170.63,623.81-97.22,649.01
						c40.24,13.82,69.29-80.88,229.91-169.48c121.36-66.94,163.53-45.29,215.46-91.97c38.51-34.61,61.88-88.38,73.03-150.16
						C2361.17,2182.93,2334.07,2218.27,2292.08,2242.63z"/>
				</g>
				<g>
					<path class="st4" d="M2593.94,364.07l-578.05,829.96c-23.08,33.14-1.92,75.4,42.68,85.25
						c133.93,29.59,297.32,55.07,484.43,62.54c286.2,11.42,528.85-23.24,707.73-62.61c44.62-9.82,65.76-52.11,42.68-85.25
						c-192.67-276.63-385.33-553.26-578-829.89C2688.43,325.31,2620.94,325.31,2593.94,364.07z"/>
					<path class="st5" d="M2716.43,717.31c1.54-96.99-5.13-224.03-36.31-378.4c-30.41-9.69-67.74-1.31-86.18,25.16l-578.05,829.96
						c-23.08,33.14-1.92,75.4,42.68,85.25c133.93,29.59,297.32,55.07,484.43,62.53c75.53,3.01,148.03,2.82,217.12,0.17
						c0.32-0.21,0.65-0.42,0.97-0.63c-12.23-58.18-27.96-144.34-38.1-249.62C2706.41,919.57,2715.07,803.14,2716.43,717.31z"/>
				</g>
			</g>
			<g>
				<g>
					<g>
						<g>
							<g>
								<rect x="3259.4" y="1903.23" class="st8" width="257.29" height="30.09"/>
							</g>
							<g>
								<rect x="3220.09" y="2050.68" class="st8" width="257.29" height="30.09"/>
							</g>
							<g>
								<rect x="3180.79" y="2198.13" class="st8" width="257.29" height="30.09"/>
							</g>
							<g>
								<rect x="3141.48" y="2345.58" class="st8" width="257.29" height="30.09"/>
							</g>
							<g>
								<rect x="3102.17" y="2493.03" class="st8" width="257.29" height="30.09"/>
							</g>
						</g>
						<polygon class="st8" points="3273.43,1801.62 3302.54,1809.24 3079.12,2663.04 3048.01,2663.04 						"/>
						<polygon class="st8" points="3530.72,1801.62 3559.83,1809.24 3336.4,2663.04 3305.3,2663.04 						"/>
					</g>
					<g>
						<g>
							<g>
								<rect x="3440.7" y="1903.23" class="st8" width="257.29" height="30.09"/>
							</g>
							<g>
								<rect x="3480.01" y="2050.68" class="st8" width="257.29" height="30.09"/>
							</g>
							<g>
								<rect x="3519.32" y="2198.13" class="st8" width="257.29" height="30.09"/>
							</g>
							<g>
								<rect x="3558.63" y="2345.58" class="st8" width="257.29" height="30.09"/>
							</g>
							<g>
								<rect x="3597.93" y="2493.03" class="st8" width="257.29" height="30.09"/>
							</g>
						</g>
						<polygon class="st8" points="3654.85,1809.24 3683.96,1801.62 3909.38,2663.04 3878.27,2663.04 						"/>
						<polygon class="st8" points="3397.56,1809.24 3426.67,1801.62 3652.09,2663.04 3620.99,2663.04 						"/>
					</g>
					<g>
						<path class="st8" d="M3193.95,1820.47h566.48c8.31,0,15.05-6.74,15.05-15.05s-6.74-15.05-15.05-15.05h-566.48
							c-8.31,0-15.05,6.74-15.05,15.05S3185.64,1820.47,3193.95,1820.47z"/>
					</g>
				</g>
				<g>
					<g>
						<path class="st8" d="M3602.75,1265.37c4.53,3.59,0.87,10.32,3.93,25.79c2.32,11.7,5.74,14.56,3.5,19.24
							c-2.81,5.85-12.29,10.01-19.24,6.56c-7.94-3.94-7.5-15.3-7.43-17.05c0.15-3.83,1.3-6.87,2.19-8.74
							c-0.58-7.87-1.17-15.74-1.75-23.61C3595.47,1262.24,3600.37,1263.49,3602.75,1265.37z"/>
						<linearGradient id="SVGID_1_" gradientUnits="userSpaceOnUse" x1="3473.6462" y1="1152.9271" x2="3611.0105" y2="1152.9271">
							<stop  offset="0" style="stop-color:#FAD8BA"/>
							<stop  offset="1" style="stop-color:#F6C89F"/>
						</linearGradient>
						<path class="st10" d="M3526.71,1029.37c9.99,16.63,19.75,34.6,28.93,53.93c33.63,70.85,48.83,137.66,55.37,192.69
							c-10.31,1.23-20.62,2.46-30.93,3.69c-5.44-32.58-17.35-78.51-45.39-128.15c-19.13-33.86-40.67-60.43-59.36-80.21
							c-4.66-14.26,0.59-29.59,12.97-38.26C3499.16,1025.45,3513.95,1024.06,3526.71,1029.37z"/>
						<path class="st11" d="M3555.64,1083.3c-9.18-19.33-18.94-37.3-28.93-53.93c-12.76-5.31-27.55-3.92-38.41,3.69
							c-12.38,8.67-17.63,24-12.97,38.26c18.69,19.77,40.23,46.35,59.36,80.21c3.44,6.09,6.64,12.13,9.61,18.09
							c2.61-16.64,7.48-29.72,12.84-40.04c2.84-5.48,6.73-11.94,10.38-19.62C3563.84,1101.14,3559.89,1092.25,3555.64,1083.3z"/>
					</g>
					<g>
						<polygon class="st8" points="3481.25,991.48 3481.25,966.37 3451.49,966.37 3445.44,991.48 						"/>
						<path class="st8" d="M3455.08,912.87c-13.23,4.56-18.61,16.14-20.19,20.19c-3.65,9.39-4.94,24.78,4.85,34.73
							c11.43,11.62,32.46,10.22,44.42-0.81c14.45-13.33,13.7-38.96,0-50.07C3475.84,910.16,3464.02,909.79,3455.08,912.87z"/>
						<path class="st12" d="M3434.74,903.57c-7.86,9.41-0.02,26.4,6.98,34.88c3.93,4.77,8.26,7.66,11.16,9.3
							c0.62,6.36,1.24,12.71,1.86,19.07c1.07,0.65,16.93,9.95,31.63,2.33c14.74-7.65,16.69-26.3,14.88-37.21
							c-2.83-17.09-17.01-28.15-29.3-32.09c-6.29-2.02-11.93-2.13-15.81-1.86C3454.08,897.69,3441.1,895.96,3434.74,903.57z"/>
					</g>
					<g>
						<g>
							<g>
								<polygon class="st8" points="3608.52,1749.11 3618.49,1773.56 3635.95,1773.56 3628.47,1749.11 								"/>
								<path class="st12" d="M3588.06,1780.54c-0.81,3.55,0.56,7.27,3.49,9.48h51.38c0.24-1.5,0.61-5-1-8.98
									c-1.73-4.29-4.75-6.63-5.99-7.48h-17.46l-10.97,3.49l-12.47-3.49C3591.57,1774.36,3588.85,1777.08,3588.06,1780.54z"/>
							</g>
							<path class="st12" d="M3422.95,1248.29c17.88,75.57,41.33,158.23,72.33,245.92c35.34,99.97,74.27,188.91,112.74,266.38
								c3.72-0.05,7.46-0.09,11.22-0.12c7.14-0.05,14.21-0.05,21.21,0c-13.74-37.97-27.26-79.15-40-123.12
								c-7.91-27.29-19.45-69.11-35.33-139.79c-14.02-62.41-31.37-147.06-47.88-250.77
								C3485.8,1247.29,3454.38,1247.79,3422.95,1248.29z"/>
							<path class="st13" d="M3582.58,1671.3c-29.44-69.99-54.46-137.67-75.78-202.26c-13-39.37-7.19-82.52,15.64-117.13
								c3.36-5.09,6.72-10.19,10.08-15.28c-5.09-28.1-10.23-58.07-15.29-89.84l-94.28,1.5c17.88,75.57,41.33,158.23,72.33,245.92
								c35.34,99.97,74.27,188.91,112.74,266.38c3.72-0.05,7.46-0.09,11.22-0.12c0.92-0.01,1.82,0,2.74-0.01
								C3608.66,1731.71,3595.49,1702,3582.58,1671.3z"/>
						</g>
						<g>
							<g>
								<polygon class="st8" points="3404.49,1749.11 3400.01,1773.56 3382.55,1773.56 3386.04,1749.11 								"/>
								<path class="st12" d="M3352.12,1780.54c-0.81,3.55,0.56,7.27,3.49,9.48h51.38c0.24-1.5,0.61-5-1-8.98
									c-1.73-4.29-4.75-6.63-5.99-7.48h-17.46l-10.97,3.49l-12.47-3.49C3355.62,1774.36,3352.9,1777.08,3352.12,1780.54"/>
							</g>
							<polygon class="st12" points="3502.76,1263.75 3409.48,1760.59 3379.55,1760.59 3409.48,1246.79 							"/>
						</g>
					</g>
					<g>
						<path class="st8" d="M3198.98,888.42c-4.08-7.28-8.16-14.57-12.24-21.85c-2.62-2.62-5.24-5.24-7.87-7.87
							c-11.22-2.33-22.43-4.66-33.65-6.99c-7.59-2.98-13.66-4.68-17.92-5.68c-2.34-0.55-4.96-1.09-5.68,0
							c-1.02,1.55,2.43,5.42,3.06,6.12c7.14,3.06,14.27,6.12,21.41,9.18c0.52,2.15,2.63,9.74,10.05,15.29
							c8.07,6.04,16.75,5.44,18.79,5.24c3.2,6.12,6.41,12.24,9.61,18.35C3189.36,896.28,3194.17,892.35,3198.98,888.42z"/>
						<linearGradient id="SVGID_2_" gradientUnits="userSpaceOnUse" x1="3174.0315" y1="1084.672" x2="3550.3142" y2="1084.672">
							<stop  offset="0" style="stop-color:#FAD8BA"/>
							<stop  offset="1" style="stop-color:#F6C89F"/>
						</linearGradient>
						<path class="st14" d="M3500.51,997.14c31.55,15.9,42.39,45.09,45.29,53.33c17.68,50.09-21.98,79.59-26.67,150
							c-2.42,36.42,5.44,67.64,14.02,90.72c-45.98,0-91.97,0-137.95,0c-10.62-33.19-20.88-76.93-23.45-128.75
							c-2.11-42.6,1.5-79.84,6.67-109.84c-23.06-2.86-70.26-11.7-116.8-44.19c-59.42-41.48-80.85-95.74-87.6-115.79
							c8.12-4.82,16.25-9.63,24.37-14.45c11.08,18.4,30.61,45.07,63.23,68.63c60.78,43.9,126.9,48.06,151.74,48.44
							C3420.24,992.62,3461.69,977.58,3500.51,997.14z"/>
						<path class="st11" d="M3528.59,1277.75c-33.27-0.99-66.55-1.99-99.82-2.98c-11.2-0.33-20.96-7.78-24.16-18.51
							c-9.01-30.16-17.26-72.04-14.57-121.7c1.66-30.64,7.11-57.25,13.32-78.87c1.93-6.71-2.92-13.44-9.89-13.79
							c-24.71-1.23-55.72-5.84-88.72-19.08c-39.3-15.76-69.29-38.91-87.93-55.09c11.78,13.85,26.5,27.87,44.83,40.67
							c46.54,32.49,93.73,41.33,116.8,44.19c-5.16,30-8.78,67.25-6.67,109.84c2.57,51.83,12.83,95.56,23.45,128.75h137.95
							C3531.59,1286.98,3530.05,1282.49,3528.59,1277.75z"/>
					</g>
				</g>
			</g>
		</g>
		<g>
			<ellipse class="st1" cx="1513" cy="2850.92" rx="345.53" ry="59.12"/>
			<g>
				<g>
					<path class="st15" d="M1526.05,1969.23c-6.72-1.3-21.56-5.23-26.21-6.47c-0.94-0.25-1.8-0.72-2.52-1.36l-10.08-9.03
						c-2.89-2.59-2.7-7.18,0.4-9.52l4.42-3.33c1.68-1.26,3.89-1.59,5.86-0.86l22.67,8.42c0.99,0.37,1.87,0.98,2.55,1.79l8.76,10.32
						c2.14,2.52,1.91,6.27-0.51,8.51l0,0C1529.96,1969.03,1527.98,1969.6,1526.05,1969.23z"/>
					
						<linearGradient id="SVGID_3_" gradientUnits="userSpaceOnUse" x1="4556.2046" y1="2082.7783" x2="4670.9883" y2="2082.7783" gradientTransform="matrix(-0.994 0.1092 0.1092 0.994 5936.4648 -490.7677)">
						<stop  offset="0" style="stop-color:#FAD8BA"/>
						<stop  offset="1" style="stop-color:#F6C89F"/>
					</linearGradient>
					<path class="st16" d="M1527.09,2144.28c10.95-6.66,33.11-22.53,43.28-50.97c16.82-47.03-7.07-106.16-44.63-121.79
						c-5.99-2.49-11.44-3.51-15.4-3.96c5.42-5.14,10.84-10.28,16.26-15.42c9.11,2.12,21.31,5.92,34.37,13.18
						c42.6,23.7,73.27,72.5,74.71,123.14c2.04,71.71-54.74,139.81-81.82,133.01C1542.52,2218.63,1531.17,2201.37,1527.09,2144.28z"
						/>
				</g>
				<g>
					<g>
						
							<rect x="1402.98" y="1466.55" transform="matrix(0.9905 -0.1376 0.1376 0.9905 -226.4205 215.0244)" class="st4" width="77.51" height="556.65"/>
						<path class="st5" d="M1435.75,1618.84l27.08-3.76l-21.01-151.22l-76.77,10.67l76.61,551.36l76.77-10.67l-2.42-17.45
							l-27.08,3.76c-17.16,2.38-33.01-9.6-35.39-26.76l-44.54-320.54C1406.6,1637.07,1418.58,1621.22,1435.75,1618.84z"/>
					</g>
					<g>
						<path class="st4" d="M1809.83,1547.89l-775.95,107.82c-24.06,3.34-46.28-13.45-49.63-37.52l-33.79-243.2
							c-3.34-24.06,13.45-46.28,37.52-49.63l775.95-107.82c24.06-3.34,46.28,13.45,49.63,37.52l33.79,243.2
							C1850.69,1522.33,1833.9,1544.55,1809.83,1547.89z"/>
						<path class="st5" d="M1051.46,1620.07c-24.06,3.34-46.28-13.45-49.63-37.52l-33.79-243.2c-0.26-1.88-0.39-3.75-0.41-5.6
							c-12.36,9.29-19.45,24.84-17.17,41.24l33.79,243.2c3.34,24.06,25.56,40.86,49.63,37.52l775.95-107.82
							c22.18-3.08,38.18-22.21,37.93-44.03c-5.77,4.34-12.69,7.32-20.35,8.39L1051.46,1620.07z"/>
					</g>
					<g>
						<path class="st6" d="M1209.86,1490.4c1.13,8.17,0.05,15.8-3.25,22.89c-3.3,7.09-8.75,13.05-16.34,17.86
							c-7.59,4.81-16.95,7.99-28.06,9.53c-13.33,1.85-24.67,0.86-34.03-2.97c-6.64-2.77-12.31-6.91-16.98-12.43
							s-7.41-11.13-8.21-16.84c-0.46-3.32,0.3-6.32,2.27-9c1.97-2.68,4.74-4.27,8.3-4.77c2.89-0.4,5.46,0.18,7.71,1.75
							c2.25,1.56,4.34,4.06,6.25,7.49c2.32,4.06,4.67,7.39,7.07,10s5.54,4.6,9.42,5.97c3.88,1.37,8.77,1.64,14.67,0.83
							c8.11-1.13,14.43-3.93,18.97-8.41s6.42-9.55,5.63-15.2c-0.62-4.48-2.49-7.93-5.62-10.35c-3.12-2.41-6.95-4.06-11.48-4.93
							c-4.53-0.87-10.54-1.63-18.02-2.29c-10.02-0.92-18.51-2.45-25.47-4.58s-12.73-5.56-17.3-10.27s-7.39-10.98-8.48-18.77
							c-1.03-7.43,0.08-14.31,3.33-20.65c3.25-6.34,8.5-11.59,15.74-15.76c7.25-4.17,16.06-6.97,26.43-8.41
							c8.29-1.15,15.6-1.12,21.94,0.1c6.33,1.22,11.73,3.25,16.2,6.11c4.47,2.85,7.88,6.03,10.24,9.52
							c2.36,3.49,3.79,7.02,4.29,10.58c0.45,3.25-0.29,6.35-2.23,9.28c-1.94,2.93-4.63,4.63-8.07,5.11
							c-3.13,0.44-5.62-0.02-7.47-1.36c-1.84-1.34-3.97-3.66-6.37-6.96c-3.16-4.76-6.66-8.32-10.5-10.7s-9.56-3.04-17.18-1.98
							c-7.06,0.98-12.54,3.32-16.44,7.03c-3.9,3.7-5.54,7.73-4.94,12.09c0.38,2.7,1.44,4.93,3.18,6.69
							c1.75,1.76,4.01,3.17,6.78,4.22c2.78,1.05,5.54,1.8,8.29,2.23s7.27,0.99,13.57,1.68c7.86,0.72,15.03,1.73,21.5,3.02
							s12.08,3.17,16.84,5.64c4.76,2.47,8.67,5.88,11.75,10.24S1208.92,1483.59,1209.86,1490.4z"/>
						<path class="st6" d="M1310.77,1403.05l-29.84,4.15l13.63,98.1c0.79,5.65,0.11,10.02-2.03,13.1s-5.2,4.9-9.19,5.46
							c-4.05,0.56-7.55-0.36-10.48-2.77c-2.93-2.41-4.79-6.41-5.56-12l-13.63-98.1l-29.84,4.15c-4.67,0.65-8.28,0.1-10.84-1.64
							s-4.07-4.3-4.54-7.68c-0.49-3.5,0.31-6.43,2.39-8.78s5.37-3.84,9.85-4.47l86.95-12.08c4.73-0.66,8.39-0.1,10.98,1.67
							c2.59,1.77,4.12,4.34,4.59,7.72c0.47,3.38-0.32,6.26-2.37,8.64C1318.8,1400.89,1315.44,1402.4,1310.77,1403.05z"/>
						<path class="st6" d="M1429.01,1485.68l-8.8-16.05l-54.9,7.63l-4.04,18.21c-1.58,7.1-3.09,11.96-4.55,14.57
							c-1.45,2.61-4.21,4.2-8.26,4.76c-3.44,0.48-6.65-0.36-9.64-2.51c-2.99-2.15-4.71-4.82-5.15-8.02
							c-0.26-1.84-0.21-3.79,0.13-5.84c0.34-2.05,0.97-4.92,1.9-8.62l22.36-92.49c0.63-2.65,1.39-5.84,2.29-9.57s1.96-6.86,3.2-9.41
							s3.04-4.73,5.38-6.52c2.35-1.8,5.39-2.96,9.14-3.48c3.81-0.53,7.09-0.25,9.83,0.84c2.75,1.09,5.06,2.66,6.95,4.72
							c1.88,2.05,3.54,4.31,4.98,6.77c1.44,2.46,3.29,5.76,5.55,9.89l47.39,82.24c3.68,6.25,5.74,10.88,6.15,13.89
							c0.44,3.13-0.47,6.18-2.72,9.16s-5.21,4.71-8.9,5.23c-2.15,0.3-4.04,0.17-5.69-0.38c-1.64-0.55-3.08-1.42-4.3-2.59
							c-1.23-1.18-2.63-3.05-4.21-5.61S1430.16,1487.65,1429.01,1485.68z M1369.64,1455.71l40.35-5.61l-28.1-52.9L1369.64,1455.71z"
							/>
						<path class="st6" d="M1509.14,1431.26l-9.58,1.33l6.03,43.39c0.79,5.71,0.12,10.09-2.02,13.14c-2.14,3.05-5.24,4.86-9.29,5.42
							c-4.36,0.61-7.93-0.34-10.72-2.83s-4.56-6.47-5.32-11.94l-14.44-103.9c-0.82-5.9-0.09-10.35,2.18-13.35
							c2.27-3.01,6.36-4.92,12.25-5.74l44.49-6.18c6.14-0.85,11.43-1.32,15.86-1.41c4.43-0.08,8.51,0.43,12.23,1.54
							c4.48,1.19,8.58,3.22,12.3,6.08c3.72,2.86,6.72,6.37,9.02,10.53c2.3,4.16,3.79,8.69,4.47,13.6
							c1.4,10.07-0.32,18.51-5.17,25.32c-4.84,6.81-12.86,12.27-24.06,16.39c5.21,1.91,10.38,5.07,15.5,9.49s9.81,9.23,14.07,14.43
							s7.67,9.95,10.24,14.26s3.97,7.32,4.21,9.04c0.25,1.78-0.08,3.63-0.97,5.53c-0.89,1.91-2.25,3.51-4.08,4.79
							c-1.82,1.29-4.03,2.11-6.61,2.47c-3.07,0.43-5.75,0.06-8.04-1.09c-2.29-1.15-4.34-2.73-6.15-4.73c-1.81-2-4.31-4.97-7.48-8.91
							l-13.5-16.72c-4.86-6.15-9.08-10.76-12.67-13.83c-3.59-3.07-7.07-5.03-10.44-5.87
							C1518.11,1430.67,1513.99,1430.59,1509.14,1431.26z M1516.92,1372.34l-25.24,3.51l5.16,37.12l24.5-3.4
							c6.57-0.91,12.02-2.25,16.34-4.01c4.33-1.76,7.48-4.17,9.46-7.23c1.98-3.06,2.64-6.99,1.98-11.78
							c-0.52-3.75-1.93-6.91-4.23-9.51c-2.3-2.59-5.24-4.36-8.81-5.3C1532.7,1370.84,1526.31,1371.04,1516.92,1372.34z"/>
						<path class="st6" d="M1678.77,1351.92l-29.84,4.15l13.63,98.1c0.79,5.65,0.11,10.02-2.03,13.1c-2.14,3.08-5.2,4.9-9.19,5.46
							c-4.05,0.56-7.55-0.36-10.48-2.77c-2.93-2.41-4.79-6.41-5.56-12l-13.63-98.1l-29.84,4.15c-4.67,0.65-8.28,0.1-10.84-1.64
							c-2.56-1.74-4.07-4.3-4.54-7.68c-0.49-3.5,0.31-6.43,2.39-8.78s5.37-3.84,9.85-4.47l86.95-12.08
							c4.73-0.66,8.39-0.1,10.98,1.67c2.59,1.77,4.12,4.34,4.59,7.72c0.47,3.38-0.32,6.26-2.37,8.64
							C1686.79,1349.76,1683.43,1351.27,1678.77,1351.92z"/>
					</g>
				</g>
				<g>
					<g>
						<g>
							<polygon class="st15" points="1653.96,2797.88 1654.55,2839.68 1634.63,2845.67 1626.97,2805.99 							"/>
							<path class="st12" d="M1694.2,2856.6c3.79-6.57,4.01-15.18,0.63-21.39c-3.92-7.2-11.41-8.82-16.31-6.97
								c-5.19,1.96-5.63,7.11-11.61,10.28c-4.56,2.41-9.12,1.97-12.35,1.17l-19.92,5.99c-1.1,1.75-3.59,6.19-4.01,12.66
								c-0.57,8.57,2.88,14.68,3.82,16.24L1694.2,2856.6z"/>
						</g>
						<g>
							<path class="st12" d="M1546.56,2289.49c12.5,32.7,24.59,67.25,36.01,103.67c47.59,151.81,70.56,295,80.76,418.02
								c-12.75,3.83-25.49,7.66-38.24,11.49c-15.18-74.97-40.13-168.91-82.49-270.35c-35.42-84.83-74.13-153.6-108.66-206.94
								C1471.48,2326.75,1509.02,2308.12,1546.56,2289.49z"/>
							<path class="st13" d="M1451.06,2336.89c32.84,54.38,67.66,120.19,100.08,197.82c43.75,104.78,71.19,202.52,88.81,283.49
								c-4.96,1.49-9.91,2.98-14.87,4.47c-15.18-74.97-40.13-168.91-82.49-270.35c-35.42-84.83-74.13-153.6-108.66-206.94
								C1439.65,2342.55,1445.36,2339.72,1451.06,2336.89z"/>
						</g>
					</g>
					<g>
						<g>
							<path class="st15" d="M1308.86,2460.66l-5.17-41.31c1.03-1.77,4.63-7.46,11.05-9.3c3.38-0.97,6.28-0.5,8.03-0.02
								c3.98,12.67,7.96,25.33,11.94,38L1308.86,2460.66z"/>
							<path class="st12" d="M1318.36,2424.17c4.44-1.45,6.94,0.74,9.51-1.69c4.02-3.8,4.37-15.51-0.45-22.03
								c-3.92-5.3-9.74-5.14-10.87-5.08c-6.29,0.33-10.54,5.47-15.85,11.86c-6.32,7.6-12.83,15.38-22.2,26.55
								c-3.59,7.59-2.27,16.63,2.26,20.9c3.04,2.87,7.75,3.8,11.78,1.13c3.64-2.41,5.91-7.21,5.89-12.43
								c2.72-1.88,5.44-3.77,8.15-5.65C1308.9,2432.35,1312.61,2426.05,1318.36,2424.17z"/>
						</g>
						<g>
							<path class="st12" d="M1496.83,2358.64c2.71,44.34,0.75,112.05-28.08,179.66c-14.96,35.09-36.23,85.55-69.76,87.57
								c-40.42,2.44-70.35-67.92-76.55-82.48c-17.8-41.78-19.11-81.81-18.57-102.82c9.66-3.77,19.33-7.53,28.99-11.3
								c7.36,13.52,14.87,28.58,22.2,45.2c7.68,17.42,14.11,34.2,19.53,49.99c1.31,3.82,5.83,2.94,6.14-1.19
								c1.29-16.84,2.7-33.86,4.23-51.06c3.12-35.14,6.62-69.42,10.42-102.82c7.8-7,33.17-27.87,67.04-23.73
								C1477.24,2347.45,1488.99,2353.49,1496.83,2358.64z"/>
							<path class="st13" d="M1355.05,2474.45c7.68,17.42,14.11,34.2,19.53,49.99c1.31,3.82,5.83,2.94,6.14-1.19
								c1.29-16.84,2.7-33.86,4.23-51.06c3.12-35.14,6.62-69.42,10.42-102.82c4.06-3.65,12.89-11.05,25.21-16.73
								c4.4,23.85-1.31,62.88-5.73,93.57c-5.92,41.07-16,74.98-25.38,100.35c-4.05,10.96-15.49,13.76-22.56,5.51
								c-30.12-35.14-45.68-79.52-43.17-119.41c4.65-1.54,4.64-1.54,9.29-3.08C1340.33,2443.01,1347.78,2457.96,1355.05,2474.45z"/>
						</g>
					</g>
				</g>
				
					<linearGradient id="SVGID_4_" gradientUnits="userSpaceOnUse" x1="4610.8726" y1="2254.4895" x2="4799.9365" y2="2254.4895" gradientTransform="matrix(-1 0 0 1 6190.1636 0)">
					<stop  offset="0" style="stop-color:#FAD8BA"/>
					<stop  offset="1" style="stop-color:#F6C89F"/>
				</linearGradient>
				<path class="st17" d="M1495.67,2113.87c-23.59-0.63-42.4,7.66-56.16,17.29c-16.88,11.81-27.75,30.41-29.88,50.9
					c-6.47,62.11-12.93,124.21-19.4,186.32c12.88,8.13,54.13,31.87,109.41,25.78c38.91-4.28,66.54-21.33,79.66-30.74
					c-0.39-58.46-0.78-116.93-1.17-175.39c-0.14-21.43-10.12-41.66-27.18-54.64C1535.24,2121.44,1515.98,2114.41,1495.67,2113.87z"
					/>
				<g>
					<g>
						<path class="st15" d="M1402.92,1972.64c6.54-2.02,20.86-7.55,25.35-9.3c0.9-0.35,1.71-0.91,2.35-1.63l9.04-10.08
							c2.59-2.89,1.9-7.43-1.44-9.42l-4.76-2.83c-1.81-1.07-4.04-1.15-5.91-0.21l-21.61,10.84c-0.94,0.47-1.75,1.18-2.34,2.06
							l-7.58,11.21c-1.85,2.73-1.22,6.44,1.44,8.41l0,0C1399.01,1972.86,1401.05,1973.22,1402.92,1972.64z"/>
						
							<linearGradient id="SVGID_5_" gradientUnits="userSpaceOnUse" x1="4718.3892" y1="2080.4351" x2="4863.4292" y2="2080.4351" gradientTransform="matrix(-1 0 0 1 6190.1636 0)">
							<stop  offset="0" style="stop-color:#FAD8BA"/>
							<stop  offset="1" style="stop-color:#F6C89F"/>
						</linearGradient>
						<path class="st18" d="M1458.75,2125.7c-7.62-0.68-30.1-3.68-49.81-21.67c-26.18-23.9-27.2-55.71-27.28-61.16
							c-0.69-45.34,36.09-71.63,39.23-73.8c-5.78-6.74-11.57-13.48-17.35-20.22c-9.86,5.18-50.36,27.89-68.52,78.09
							c-17.04,47.14-3.19,87.54,1.01,99.19c20.03,55.62,66,80.13,76.55,85.42c20.73,2.74,41.09-6.81,51.73-24.21
							C1475.99,2168.25,1473.83,2143.18,1458.75,2125.7z"/>
					</g>
					<path class="st11" d="M1336.03,2126.14c-4.2-11.66-18.05-52.06-1.01-99.19c6.13-16.97,14.82-30.79,24.02-41.86
						c-8.7,38.88-16.64,112.54,27.39,173.9c15.03,20.95,32.77,35.8,48.92,46.27c-8.26,58.03-16.53,116.07-24.79,174.1
						c-9.32-4.26-16.25-8.41-20.33-10.98c5.55-53.28,11.09-106.57,16.64-159.85C1390.61,2199.43,1353.48,2174.6,1336.03,2126.14z"/>
				</g>
				<g>
					<path class="st19" d="M1514.01,2093.21c2.53,13.88,5.07,27.76,7.6,41.65c-2.85,1.56-9.55,4.74-18.51,4.3
						c-11.06-0.55-18.46-6.27-20.82-8.26c2.86-14.65,5.73-29.31,8.59-43.96C1498.59,2089.02,1506.3,2091.12,1514.01,2093.21z"/>
					<path class="st15" d="M1525.78,2058.8c2.69,4.11,7.02,11.98,8,22.62c0.4,4.38,2.05,22.26-8,30.07
						c-12.49,9.7-40.42,1.77-48.82-17.65c-4.83-11.16-4.35-28.75,8.55-38.34C1497.07,2046.9,1514.24,2047.97,1525.78,2058.8z"/>
					<path class="st12" d="M1521.92,2069.01c1.67-0.21,10.03-1.43,13.79-7.45c5.88-9.4-0.89-28.18-12.69-29.79
						c-9.17-1.25-16.65,8.49-17.1,9.1c-4.11-1.86-13.54-5.33-22.89-1.66c-16.69,6.56-19.93,30.63-15.45,44.41
						c0.97,3,3.55,10.92,9.65,12.41c2.44,0.6,6.04,0.31,7.17-1.66c1.68-2.92-3.83-6.53-4.69-14.62c-0.44-4.14,0.36-9.25,2.21-9.65
						c2.24-0.49,5.39,6.05,5.79,6.9c6.15-8.23,11.68-10.3,15.45-10.76C1510.32,2065.38,1513.5,2070.04,1521.92,2069.01z"/>
				</g>
			</g>
		</g>
		<g>
			<ellipse class="st1" cx="4039" cy="2819.88" rx="345.53" ry="59.12"/>
			<g>
				<g>
					<circle class="st12" cx="4179.04" cy="2075.76" r="60.94"/>
					<circle class="st12" cx="4146.69" cy="2020.09" r="47.39"/>
				</g>
				<g>
					<g>
						<g>
							<polygon class="st15" points="3890.54,2749.93 3890.54,2785.63 3914.81,2785.63 3918.38,2749.93 							"/>
							<path class="st13" d="M3890.54,2785.63c-6.66,7.85-13.33,15.71-19.99,23.56c-8.88-4.73-18.73-1.42-21.78,5
								c-2.08,4.38-0.96,10.11,2.5,14.64c6.66,0,13.33,0,19.99,0l43.55-26.06c3.45-2.04,5.41-5.83,5-9.64
								c-0.52-4.82-4.56-7.25-5-7.5H3890.54z"/>
						</g>
						<g>
							<path class="st12" d="M4027.2,2276.53c-50.2,73.5-116.24,193.96-136.12,352.9c-5.95,47.55-6.89,91.6-5.04,131.08
								c13.44,2.52,26.89,5.04,40.33,7.56c3.41-54.53,15.77-143.26,62.39-241.36c48.7-102.48,113.28-169.93,154.55-207.03
								c-2.53-32.05-24.93-58.08-53.72-63.95C4054.76,2248.63,4028.87,2274.78,4027.2,2276.53z"/>
							<path class="st13" d="M4120.06,2319.68c-2.53-32.05-24.93-58.08-53.72-63.95c-0.16-0.03-0.31-0.05-0.47-0.08
								c7.22-1.4,15.19-1.65,23.71,0.08c28.78,5.87,51.19,31.91,53.72,63.95c-41.27,37.09-105.85,104.54-154.55,207.03
								c-46.62,98.1-58.97,186.83-62.39,241.36c-7.65-1.43-15.3-2.87-22.95-4.3c3.79-54.83,16.69-141.49,62.1-237.06
								C4014.21,2424.23,4078.79,2356.78,4120.06,2319.68z"/>
						</g>
					</g>
					<g>
						<g>
							<polygon class="st15" points="4160.78,2770.28 4160.78,2806.34 4139.36,2806.34 4131.86,2763.14 							"/>
							<path class="st13" d="M4160.78,2806.34c-0.68-0.68-4.82-4.69-11.25-4.46c-5.75,0.2-9.38,3.66-10.17,4.46
								c-2.5,7.5-5,14.99-7.5,22.49h37.13L4160.78,2806.34z"/>
						</g>
						<g>
							<polygon class="st12" points="4061.13,2314.32 4129.11,2785.63 4171.01,2785.63 4178.93,2304.31 							"/>
							<polygon class="st13" points="4061.13,2314.32 4178.93,2304.31 4178.92,2305.43 4070.96,2314.59 4138.9,2785.63 
								4129.11,2785.63 							"/>
						</g>
					</g>
				</g>
				<g>
					<path class="st15" d="M3860.85,2072.89c1.12-2.93-3.72-5.08-11.57-15.15c-0.38-0.49-2.48-3.19-6.1-4.65
						c-1.18-0.48-2.8-1.11-3.76-0.41c-1.48,1.08-0.55,4.66-0.11,6.27c0.46,1.7,4.7,16.58,14.35,16.97
						C3856.18,2076.02,3859.98,2075.18,3860.85,2072.89z"/>
					
						<linearGradient id="SVGID_6_" gradientUnits="userSpaceOnUse" x1="1394.9119" y1="3483.3625" x2="1393.3054" y2="3624.7295" gradientTransform="matrix(-0.7789 0.6271 0.6271 0.7789 2831.9275 -1558.0667)">
						<stop  offset="0" style="stop-color:#FAD8BA"/>
						<stop  offset="1" style="stop-color:#F6C89F"/>
					</linearGradient>
					<path class="st20" d="M4053.9,2054.96c-13.17,2.55-17.79,21.52-25.6,30.55c-12.73,14.73-31.08,20.01-50,21.01
						c-43.97,2.33-86.75-13.93-119.56-42.93c-4.67,3.3-9.35,6.61-14.02,9.91c15.64,24.14,43.75,58.74,89.56,80.51
						c62.99,29.93,153.62,32.83,173.27-3.38c7.45-13.74,3.15-30.27,0.54-40.31C4100.36,2080.58,4073.83,2051.11,4053.9,2054.96z"/>
					<path class="st11" d="M3967.92,2166.75c55.81,3.59,86.58-10.33,104.45-28.46c14.95-15.17,21.91-34.34,27.67-48.11
						c3.47,6.43,6.27,13.27,8.05,20.14c2.61,10.04,6.91,26.57-0.54,40.31C4091.21,2180.76,4025.74,2183.81,3967.92,2166.75z"/>
				</g>
				<g>
					
						<linearGradient id="SVGID_7_" gradientUnits="userSpaceOnUse" x1="127.1224" y1="2198.6423" x2="-20.6706" y2="2195.4294" gradientTransform="matrix(-1 0 0 1 4057.2739 0)">
						<stop  offset="0" style="stop-color:#FAD8BA"/>
						<stop  offset="1" style="stop-color:#F6C89F"/>
					</linearGradient>
					<path class="st21" d="M4107.71,2038.71c-4.63-0.58-28.35-3.09-48.19,10.71c-24.62,17.12-22.88,45.16-33.2,99.6
						c-6.32,33.32-16.01,65.51-25.86,97.9c-8.82,28.98-16.82,57.92,9.12,81.4c17.85,16.16,42.9,21.79,66.94,23.2
						c24.42,1.44,49.06-0.86,72.8-6.78c13.9-3.47,28.04-8.51,38.01-18.8c22.64-23.35,17.46-63.38,16.7-93
						c-0.97-37.46-3.63-75.41-15.44-111.23C4176.47,2084.97,4149.71,2044,4107.71,2038.71z"/>
					<path class="st11" d="M4061.13,2270.58c3.86-1.65,58.94-26.27,67.65-83.36c5.09-33.37-8.44-59.59-13.68-68.64
						c0.64-3.74,5.49-29.58,27.98-40.87c7.41-3.72,14.57-4.77,19.85-4.96c11.61,14.7,20.15,32.26,25.66,48.96
						c11.82,35.82,14.47,73.77,15.44,111.23c0.1,3.94,0.28,8.06,0.46,12.31c-4.68,5.52-9.52,10.16-14.31,14.08
						c-43.26,35.4-101.77,27.78-123.01,23.93C4065.16,2279.03,4063.14,2274.81,4061.13,2270.58z"/>
				</g>
				<g>
					<path class="st22" d="M4110.35,2011.61c-3.31,11.2-6.62,22.4-9.93,33.6c1.31,1.39,5.72,5.74,12.98,6.87
						c7.84,1.23,13.72-2.11,15.27-3.05c-1.27-12.22-2.55-24.44-3.82-36.65C4120.02,2012.11,4115.18,2011.86,4110.35,2011.61z"/>
					<path class="st23" d="M4087.01,2016.41c-3.39-12.49,1.59-27.5,13.01-33.11c14.78-7.26,36.06,3.35,39.69,20.68
						c3.32,15.82-8.86,33.44-24.83,34.43C4101.77,2039.22,4090.31,2028.57,4087.01,2016.41z"/>
					<path class="st12" d="M4137.66,1969.69c-11.76-11.59-28.61-8.38-33.1-7.52c-4.46,0.85-13.39,2.55-18.65,10.08
						c-2.95,4.21-3.68,8.71-3.91,10.24c-1.01,6.63,0.85,11.8,1.5,13.54c4.86,12.98,18.58,17.79,21.82,18.81
						c1.64,0.52,18.36,5.57,25.58-2.26c3.01-3.26,3.37-7.68,4.51-7.52c2.06,0.28,0.41,14.62,2.73,15.11
						c2.05,0.43,7.66-9.92,8.44-21.61C4146.9,1993.58,4147.82,1979.7,4137.66,1969.69z"/>
				</g>
				<g>
					<path class="st8" d="M4162.33,2278.38l-72.59,97.79c-14.19,19.12-41.19,23.11-60.31,8.92l-92.97-69.01
						c-19.12-14.19-23.11-41.19-8.92-60.31l72.59-97.79c14.19-19.12,41.19-23.11,60.31-8.92l92.97,69.01
						C4172.53,2232.26,4176.52,2259.27,4162.33,2278.38z"/>
					<path class="st8" d="M4160.97,2325.52l-26.5,35.69c-10.13,13.65-29.41,16.5-43.05,6.37l-112.78-83.72
						c-13.65-10.13-16.5-29.41-6.37-43.05l26.5-35.69c10.13-13.65,29.41-16.5,43.05-6.37l112.78,83.72
						C4168.25,2292.6,4171.1,2311.87,4160.97,2325.52z"/>
					<path class="st6" d="M3993.83,1921.52c-109.53-81.31-264.24-58.43-345.55,51.11c-81.31,109.53-58.43,264.24,51.11,345.55
						c79.7,59.16,183.31,63.15,265.16,18.74l58.55,43.46l123.98-167.01l-58.55-43.46
						C4107.34,2078.7,4073.53,1980.69,3993.83,1921.52z"/>
					<path class="st24" d="M4047.06,2348.11c-1.16-0.7-2.31-1.46-3.42-2.29l-6.34-4.7l-58.55-43.46
						c-81.85,44.41-185.46,40.42-265.16-18.74c-83.77-62.18-116.85-167.3-91.41-262.3c-47.93,103.92-18.32,230.66,77.21,301.57
						c79.7,59.16,183.31,63.15,265.16,18.74l58.55,43.46L4047.06,2348.11C4047.06,2348.11,4047.06,2348.11,4047.06,2348.11z"/>
					<path class="st25" d="M4148.68,2321.94c-9.37,12.62-26.55,16-39.88,8.43l-4.85,6.53c-0.43,0.58-0.87,1.15-1.33,1.7
						c-0.15,0.19-0.32,0.36-0.47,0.55c-0.31,0.36-0.61,0.72-0.92,1.06c-0.19,0.21-0.39,0.41-0.59,0.62
						c-0.29,0.31-0.58,0.61-0.87,0.91c-0.21,0.21-0.44,0.42-0.65,0.63c-0.29,0.27-0.57,0.55-0.86,0.81
						c-0.23,0.21-0.47,0.41-0.7,0.62c-0.29,0.25-0.58,0.5-0.87,0.74c-0.25,0.2-0.49,0.4-0.74,0.59c-0.29,0.23-0.59,0.46-0.88,0.68
						c-0.26,0.19-0.52,0.38-0.78,0.57c-0.3,0.21-0.59,0.42-0.89,0.62c-0.27,0.18-0.54,0.36-0.82,0.53c-0.3,0.19-0.6,0.38-0.9,0.56
						c-0.28,0.17-0.57,0.34-0.85,0.5c-0.3,0.17-0.6,0.34-0.91,0.5c-0.3,0.16-0.59,0.32-0.89,0.47c-0.3,0.15-0.6,0.3-0.91,0.45
						c-0.31,0.15-0.61,0.29-0.92,0.44c-0.3,0.14-0.6,0.27-0.9,0.39c-0.32,0.14-0.64,0.27-0.96,0.4c-0.29,0.12-0.59,0.23-0.89,0.34
						c-0.34,0.13-0.67,0.25-1.01,0.37c-0.29,0.1-0.57,0.19-0.86,0.28c-0.35,0.11-0.71,0.23-1.06,0.33c-0.27,0.08-0.54,0.15-0.8,0.22
						c-0.38,0.1-0.76,0.21-1.15,0.3c-0.22,0.05-0.44,0.1-0.66,0.15c-0.44,0.1-0.87,0.2-1.31,0.28c-0.04,0.01-0.07,0.01-0.11,0.02
						c-1.81,0.35-3.64,0.57-5.48,0.69c-0.08,0-0.15,0.01-0.23,0.02c-0.51,0.03-1.02,0.04-1.53,0.05c-0.16,0-0.31,0.01-0.47,0.01
						c-0.48,0-0.97,0-1.45-0.02c-0.18,0-0.37,0-0.55-0.01c-0.47-0.02-0.94-0.05-1.42-0.08c-0.19-0.01-0.39-0.02-0.58-0.04
						c-0.47-0.04-0.93-0.09-1.4-0.14c-0.2-0.02-0.4-0.04-0.59-0.07c-0.46-0.06-0.92-0.13-1.38-0.21c-0.2-0.03-0.4-0.06-0.6-0.1
						c-0.46-0.08-0.92-0.17-1.38-0.27c-0.2-0.04-0.39-0.08-0.59-0.13c-0.46-0.1-0.92-0.22-1.38-0.34c-0.19-0.05-0.38-0.1-0.57-0.15
						c-0.46-0.13-0.92-0.26-1.38-0.4c-0.18-0.06-0.37-0.12-0.55-0.18c-0.46-0.15-0.93-0.31-1.39-0.48
						c-0.17-0.06-0.34-0.13-0.51-0.19c-0.47-0.18-0.94-0.36-1.4-0.56c-0.15-0.06-0.31-0.13-0.46-0.2c-0.48-0.21-0.95-0.42-1.43-0.65
						c-0.13-0.06-0.25-0.13-0.38-0.19c-0.49-0.24-0.99-0.49-1.48-0.76c-0.09-0.05-0.17-0.1-0.26-0.15c-0.53-0.29-1.05-0.58-1.57-0.9
						c0,0,0,0,0,0l-23.96,32.28l6.34,4.7c19.12,14.19,46.12,10.2,60.31-8.92l4.85-6.53c13.33,7.57,30.51,4.2,39.88-8.43l26.5-35.69
						c5.92-7.97,7.4-17.86,4.89-26.72L4148.68,2321.94z"/>
					<g>
						<path class="st26" d="M3872.35,2160.77c0.05,0.04,0.1,0.07,0.14,0.11c-0.42-0.33-0.68-0.53-0.82-0.64
							c0.12,0.09,0.23,0.19,0.35,0.28C3872.13,2160.6,3872.24,2160.68,3872.35,2160.77z"/>
						<path class="st26" d="M3897.61,2137.87c-0.29,0.16-0.5,0.29-0.65,0.39c0.2-0.13,0.41-0.24,0.61-0.35
							C3897.58,2137.89,3897.6,2137.88,3897.61,2137.87z"/>
						<path class="st26" d="M3880.35,2128.26c0.04,0.03-0.08-0.24-0.6-1.15c0,0.01,0.01,0.02,0.01,0.03
							C3879.97,2127.51,3880.17,2127.88,3880.35,2128.26z"/>
						<path class="st26" d="M3820.75,2052.59c-0.02,0.03-0.04,0.07-0.07,0.1c0.26-0.3,0.44-0.52,0.55-0.66
							c-0.08,0.09-0.16,0.17-0.24,0.25C3820.92,2052.38,3820.83,2052.49,3820.75,2052.59z"/>
						<path class="st26" d="M4042.83,2265.64c-24.01-12.13-47.62-25.06-70.77-38.77c-23.07-13.66-45.68-28.08-67.79-43.24
							c-10.28-7.05-20.53-14.19-30.45-21.74c-0.44-0.34-0.88-0.67-1.32-1.01c0.09,0.07,0.18,0.14,0.29,0.23
							c-0.14-0.11-0.29-0.22-0.43-0.34c-0.08-0.06-0.17-0.13-0.25-0.19c-0.31-0.24-0.82-0.65-0.43-0.34
							c-1.08-0.84-2.16-1.69-3.23-2.55c-2.25-1.8-4.48-3.64-6.68-5.5c-4.38-3.72-8.65-7.57-12.75-11.6
							c-4.05-3.98-7.94-8.13-11.58-12.48c-0.85-1.02-1.69-2.04-2.52-3.08c-0.19-0.24-0.39-0.49-0.58-0.73
							c-0.03-0.04-0.06-0.07-0.09-0.11c-0.3-0.41-0.6-0.81-0.9-1.22c-1.61-2.17-3.15-4.4-4.61-6.67c-2.99-4.64-5.66-9.48-7.92-14.51
							c-0.05-0.12-0.22-0.51-0.38-0.88c-0.17-0.41-0.42-1.02-0.49-1.2c-0.51-1.28-0.98-2.58-1.43-3.89c-0.9-2.63-1.69-5.3-2.35-8
							c-0.52-2.12-0.96-4.25-1.3-6.41c-0.48-4.33-0.5-8.69-0.04-13.02c0.48-3.03,1.18-6.03,2.21-8.93c0.12-0.33,0.24-0.65,0.37-0.98
							c0.26-0.57,0.52-1.15,0.81-1.71c0.73-1.42,1.56-2.78,2.48-4.08c-0.12,0.14-0.25,0.29-0.4,0.46c0.16-0.18,0.31-0.38,0.47-0.56
							c0.01-0.02,0.02-0.03,0.03-0.05c0.31-0.43,0.92-1.08,0.45-0.51c0.46-0.52,0.93-1.04,1.42-1.53c0.5-0.49,1.02-0.94,1.55-1.4
							c0.18-0.13,0.37-0.26,0.55-0.39c0.69-0.46,1.4-0.88,2.12-1.27c0.43-0.23,1.37-0.59,1.74-0.73c1.27-0.41,2.54-0.76,3.85-1.01
							c1.88-0.16,3.77-0.15,5.65,0.02c1.53,0.26,3.06,0.57,4.55,1.01c0.8,0.23,1.6,0.49,2.39,0.76c0.48,0.17,0.95,0.34,1.42,0.52
							c0.12,0.05,0.23,0.09,0.35,0.14c3.52,1.64,6.89,3.5,10.1,5.69c0.7,0.48,1.39,0.96,2.07,1.46c0.33,0.24,0.67,0.49,1,0.74
							c1.46,1.17,2.91,2.35,4.31,3.59c2.75,2.41,5.39,4.97,7.9,7.64c1.2,1.28,2.37,2.58,3.5,3.92c0.62,0.73,1.23,1.46,1.83,2.2
							c0.45,0.56,2.46,3.33,0.66,0.81c2.13,2.99,4.31,5.92,6.25,9.04c1.98,3.18,3.81,6.45,5.48,9.8c0.82,1.64,1.59,3.3,2.33,4.98
							c0.07,0.17,0.15,0.34,0.22,0.51c0.41,1.03,0.83,2.05,1.22,3.09c2.8,7.44,4.81,15.17,5.98,23.03c0.28,2.58,0.4,5.17,0.21,7.76
							c-0.26,1.2-0.65,2.35-0.91,3.54c-0.17,0.32-0.34,0.63-0.52,0.93c-0.05,0.07-0.13,0.19-0.21,0.31
							c-0.06,0.07-0.11,0.12-0.14,0.16c-0.17,0.18-0.34,0.34-0.51,0.51c0.11-0.06,0.23-0.12,0.36-0.19
							c-0.13,0.07-0.26,0.15-0.4,0.23c-0.06,0.06-0.12,0.13-0.19,0.18c-0.18,0.16-0.34,0.28-0.47,0.35
							c-0.07,0.03-0.15,0.05-0.22,0.07c-0.02-0.02,0.06-0.11,0.27-0.25c-0.19,0.12-0.38,0.23-0.57,0.35
							c-0.16,0.05-0.31,0.11-0.47,0.15c-0.33,0.09-0.66,0.17-0.99,0.24c-0.85,0.05-1.7,0.04-2.55-0.01
							c-1.12-0.22-2.22-0.52-3.3-0.91c-0.14-0.06-0.27-0.13-0.41-0.19c-0.74-0.38-1.47-0.79-2.17-1.25
							c-0.05-0.03-0.11-0.08-0.17-0.12c0.3,0.26,0.36,0.39-0.33-0.21c-0.07-0.06-0.12-0.12-0.19-0.18c-0.12-0.08-0.24-0.16-0.34-0.2
							c0.09,0.03,0.2,0.09,0.3,0.16c-0.49-0.44-0.98-0.89-1.43-1.38c-0.28-0.3-0.55-0.6-0.81-0.91c-0.21-0.25-0.42-0.5-0.62-0.75
							c0.27,0.35,0.54,0.7,0.82,1.05c-0.64-0.34-1.24-1.78-1.62-2.4c-0.68-1.11-1.2-2.29-1.77-3.44c-0.06-0.04-0.38-0.56-0.52-0.94
							c-0.02-0.06-0.04-0.11-0.06-0.17c-0.03-0.06-0.06-0.12-0.09-0.17c0.03,0.05,0.05,0.09,0.08,0.14
							c-0.15-0.39-0.3-0.78-0.44-1.17c-0.34-0.93-0.65-1.86-0.94-2.8c-1.13-3.62-1.98-7.32-2.81-11.02
							c-1.03-4.6-6.6-7.73-11.07-6.29c-4.82,1.56-7.39,6.14-6.29,11.07c1.19,5.29,2.41,10.62,4.45,15.66
							c2.4,5.94,5.47,11.85,10.32,16.2c4.3,3.85,9.69,6.81,15.44,7.74c6.22,1,12.91,0.54,18.31-3.05
							c5.59-3.72,9.46-9.63,10.58-16.27c1.1-6.5,0.54-12.66-0.53-19.13c-1.82-11.01-5.4-21.62-10.14-31.71
							c-4.7-10.01-10.88-19.26-18.04-27.68c-7.24-8.51-15.84-16.28-25.36-22.15c-10.89-6.71-23.96-10.83-36.74-7.93
							c-10.33,2.34-19.04,9.81-23.84,19.12c-10.06,19.53-6.45,42.09,1.86,61.49c8.34,19.48,22.62,36.08,38.19,50.19
							c16.82,15.25,35.6,28.28,54.32,41.07c20.36,13.91,41.15,27.19,62.33,39.83c21.1,12.59,42.58,24.53,64.4,35.81
							c18.58,9.6,37.41,18.72,56.47,27.35l10.92-14.72C4074.88,2281.38,4058.76,2273.69,4042.83,2265.64z"/>
						<path class="st26" d="M3886.35,2136.51c-0.15-0.13-0.36-0.3-0.56-0.43c0.01,0.01,0.02,0.02,0.04,0.04
							C3886.01,2136.24,3886.19,2136.39,3886.35,2136.51z"/>
					</g>
				</g>
				<g>
					<path class="st15" d="M4075.05,2267.9c-6.63-5.63-19.48,0.98-25.7,6.43c-2.19,1.92-3.46,3.05-3.21,4.28
						c1.03,5.18,28.11,7.91,32.13-0.54C4079.83,2274.78,4077.71,2270.16,4075.05,2267.9z"/>
					
						<linearGradient id="SVGID_8_" gradientUnits="userSpaceOnUse" x1="-14.4711" y1="2208.9446" x2="-101.2191" y2="2155.9319" gradientTransform="matrix(-1 0 0 1 4057.2739 0)">
						<stop  offset="0" style="stop-color:#FAD8BA"/>
						<stop  offset="1" style="stop-color:#F6C89F"/>
					</linearGradient>
					<path class="st27" d="M4112.45,2096.52c-6.5,37.03,43.39,57.11,42.39,92.13c-0.54,18.88-15.98,45.95-89.38,77.55
						c1.59,5.56,3.18,11.13,4.77,16.69c11.67,1.78,30.79,3.13,52.48-3.21c43.12-12.6,81.87-51.33,88.89-99.6
						c8.5-58.43-30.79-121.99-61.8-121.37C4133.44,2059.04,4115.83,2077.29,4112.45,2096.52z"/>
				</g>
			</g>
		</g>
	</g>
</g>
</svg>
